<svg version="1.1" id="Layer_1" xmlns="http://www.w3.org/2000/svg" xmlns:xlink="http://www.w3.org/1999/xlink" x="0px" y="0px"
	 width="100%" viewBox="0 0 630 216" enable-background="new 0 0 630 216" xml:space="preserve">
<path fill="#FCC700" opacity="1.000000" stroke="none" 
	d="
M396.000000,217.000000 
	C264.000031,217.000000 132.500031,217.000000 1.000035,217.000000 
	C1.000024,145.000031 1.000024,73.000046 1.000012,1.000055 
	C210.999954,1.000036 420.999908,1.000036 630.999878,1.000018 
	C630.999939,72.999947 630.999939,144.999893 631.000000,216.999908 
	C552.833313,217.000000 474.666656,217.000000 396.000000,217.000000 
M274.190125,125.500076 
	C274.190552,120.167229 274.191132,114.834373 274.191376,109.501526 
	C274.191620,104.383148 274.191437,99.264771 274.191437,94.146400 
	C274.609802,94.119110 275.028137,94.091827 275.446503,94.064545 
	C279.555420,115.937119 289.600677,136.670242 286.731506,159.799622 
	C290.492645,159.799622 293.522156,159.799622 296.502045,159.799622 
	C296.502045,124.340179 296.502045,89.273064 296.502045,54.248283 
	C293.204468,54.248283 290.269836,54.248283 286.904510,54.248283 
	C286.904510,72.302864 286.904510,90.097160 286.904510,107.891449 
	C286.670288,107.910767 286.436096,107.930084 286.201874,107.949402 
	C281.833313,89.965057 277.464752,71.980713 273.181915,54.349419 
	C269.881683,54.349419 267.314026,54.349419 264.850891,54.349419 
	C264.850891,89.772575 264.850891,124.827065 264.850891,159.817917 
	C268.158203,159.817917 271.052795,159.817917 274.190125,159.817917 
	C274.190125,148.465607 274.190125,137.482849 274.190125,125.500076 
M485.677826,103.045258 
	C487.629059,100.349640 491.079407,97.751045 491.261261,94.940926 
	C491.905243,84.989754 491.378571,74.966148 491.403870,64.970276 
	C491.417694,59.511822 488.389984,56.307983 483.465973,55.709160 
	C475.461243,54.735687 467.359772,54.557922 459.243652,54.040771 
	C459.243652,90.024406 459.243652,124.944214 459.243652,159.802902 
	C462.575623,159.802902 465.624451,159.802902 469.003387,159.802902 
	C469.003387,141.951340 469.003387,124.493210 469.003387,107.092926 
	C478.694977,105.641640 481.419464,107.845383 481.449310,116.830811 
	C481.453735,118.164085 481.450043,119.497383 481.450043,120.830673 
	C481.450043,133.786896 481.450012,146.743118 481.450012,159.928726 
	C484.983612,159.928726 488.061493,159.928726 491.552063,159.928726 
	C491.552063,146.199051 491.370331,132.731979 491.631714,119.273499 
	C491.755310,112.909515 490.499481,107.467216 485.677826,103.045258 
M526.808411,130.499634 
	C526.807800,136.827026 526.842529,143.154678 526.795715,149.481735 
	C526.756653,154.756989 524.860229,156.817551 520.221985,156.800964 
	C515.557251,156.784286 514.024170,154.965714 514.023254,149.378540 
	C514.018372,119.572983 514.020935,89.767418 514.020874,59.961861 
	C514.020874,58.176708 514.020874,56.391556 514.020874,54.545738 
	C510.471069,54.545738 507.447479,54.545738 504.453613,54.545738 
	C504.311890,55.432983 504.166748,55.918293 504.166473,56.403675 
	C504.150482,87.374741 504.119568,118.345848 504.164703,149.316849 
	C504.173187,155.131287 506.872559,158.614990 512.715332,159.932373 
	C516.073425,160.689545 519.643799,160.965469 523.086853,160.799316 
	C533.275696,160.307648 536.533936,156.696182 536.537964,146.426376 
	C536.549316,117.453369 536.542419,88.480370 536.542664,59.507366 
	C536.542664,57.881577 536.542603,56.255791 536.542603,54.415947 
	C533.081299,54.415947 530.185669,54.415947 526.808411,54.415947 
	C526.808411,79.627151 526.808411,104.563454 526.808411,130.499634 
M55.137020,109.499954 
	C55.137344,121.989464 55.126118,134.478989 55.141914,146.968491 
	C55.153023,155.751785 58.245991,159.467209 66.870255,160.660843 
	C69.646767,161.045120 72.532608,161.039459 75.331116,160.791351 
	C84.401207,159.987137 87.537621,156.441513 87.540138,147.284210 
	C87.548157,118.141968 87.542519,88.999718 87.542168,59.857471 
	C87.542145,58.073009 87.542168,56.288544 87.542168,54.472664 
	C83.983253,54.472664 81.076111,54.472664 77.809311,54.472664 
	C77.809311,56.611366 77.809311,58.419823 77.809311,60.228275 
	C77.809235,89.870102 77.813217,119.511925 77.805534,149.153748 
	C77.804054,154.866547 76.026047,156.897400 71.192932,156.801437 
	C66.567490,156.709610 65.022408,154.844894 65.021111,149.253555 
	C65.014168,119.445198 65.017807,89.636841 65.017792,59.828487 
	C65.017792,58.055752 65.017799,56.283016 65.017799,54.414669 
	C61.496864,54.414669 58.586376,54.414669 55.137024,54.414669 
	C55.137024,72.624512 55.137024,90.562225 55.137020,109.499954 
M250.186111,121.500069 
	C250.186096,103.850349 249.951981,86.196259 250.280838,68.552673 
	C250.455902,59.160507 249.067719,54.134724 235.483475,53.487148 
	C233.829147,53.408287 232.153549,53.513817 230.502167,53.678162 
	C220.651917,54.658466 217.825729,57.778599 217.820160,67.746727 
	C217.803909,96.885468 217.813538,126.024231 217.813004,155.162979 
	C217.812973,156.756439 217.813004,158.349884 217.813004,159.805817 
	C221.413208,159.805817 224.306091,159.805817 227.689789,159.805817 
	C227.689789,142.037643 227.689789,124.644882 227.689789,107.118370 
	C232.122421,107.118370 236.039536,107.118370 240.616699,107.118370 
	C240.616699,124.881371 240.616699,142.392761 240.616699,159.803345 
	C244.181641,159.803345 247.073502,159.803345 250.186111,159.803345 
	C250.186111,147.115234 250.186111,134.807648 250.186111,121.500069 
M354.536469,150.436554 
	C354.536469,136.029480 354.536469,121.622414 354.536469,107.136742 
	C359.171875,107.136742 363.089325,107.136742 367.472229,107.136742 
	C367.472229,124.825119 367.472229,142.241547 367.472229,159.917542 
	C370.844849,159.917542 373.749725,159.917542 377.187042,159.917542 
	C377.187042,157.971115 377.187042,156.188782 377.187042,154.406448 
	C377.186737,125.598969 377.187897,96.791496 377.185333,67.984016 
	C377.184387,57.361622 374.111298,54.105366 363.415497,53.496464 
	C361.594452,53.392799 359.748566,53.454792 357.930267,53.618862 
	C347.717560,54.540398 344.824066,57.669762 344.819000,67.823326 
	C344.804474,96.963829 344.813568,126.104347 344.813416,155.244858 
	C344.813385,156.831070 344.813416,158.417282 344.813416,159.985901 
	C348.375061,159.985901 351.177155,159.985901 354.536682,159.985901 
	C354.536682,156.999908 354.536682,154.206955 354.536469,150.436554 
M205.014618,136.503601 
	C206.409531,123.908585 202.532166,112.898369 195.020447,102.942085 
	C193.522018,100.956009 192.484619,98.604675 190.891449,96.710426 
	C182.829880,87.125412 181.160568,75.904755 181.956863,63.897144 
	C182.233002,59.732983 184.244812,57.879288 188.153168,57.646667 
	C192.803391,57.369896 194.949539,59.190094 195.048843,64.012283 
	C195.205170,71.603485 195.090378,79.200272 195.090378,86.752388 
	C198.788681,86.752388 201.719635,86.752388 204.791458,86.752388 
	C204.791458,78.869530 205.132385,71.225609 204.685715,63.627987 
	C204.315140,57.324398 200.539871,54.658482 192.431000,53.738499 
	C182.078293,52.563938 175.109665,54.927559 173.110764,60.356525 
	C172.712189,61.439003 172.442825,62.612400 172.361023,63.761471 
	C171.519638,75.578247 172.316956,86.935677 179.609558,97.120178 
	C184.239059,103.585503 188.672073,110.331184 192.122879,117.468620 
	C197.502808,128.596130 194.503494,140.732742 194.599625,152.436020 
	C194.611481,153.879303 191.115158,156.253433 188.972229,156.624771 
	C184.496719,157.400253 182.091339,154.734940 182.039352,149.790985 
	C181.952423,141.524002 182.015594,133.255432 182.015594,125.207504 
	C178.408539,125.207504 175.473465,125.207504 172.145370,125.207504 
	C172.145370,131.856735 172.140350,138.151535 172.146439,144.446350 
	C172.158630,157.056351 175.898911,160.909225 188.442062,160.959549 
	C191.079605,160.970139 193.778778,160.667267 196.346207,160.066879 
	C202.221817,158.692825 204.758850,155.519577 204.970444,149.490402 
	C205.110580,145.497894 205.008347,141.496857 205.014618,136.503601 
M110.854568,99.500046 
	C110.855637,88.169991 110.811119,76.839676 110.876480,65.509987 
	C110.910561,59.601574 112.631058,57.627029 117.394279,57.604584 
	C122.217636,57.581856 123.946159,59.584629 123.976807,65.400429 
	C124.014328,72.521851 123.985748,79.643631 123.985748,86.784012 
	C127.512390,86.784012 130.540329,86.784012 133.855835,86.784012 
	C133.855835,80.076683 133.914536,73.765343 133.842056,67.455513 
	C133.733459,57.998798 130.644806,54.636429 121.147163,53.688786 
	C118.844261,53.459015 116.482292,53.447647 114.178497,53.664837 
	C104.002121,54.624229 101.036148,57.764103 101.010300,67.952858 
	C100.942253,94.778336 100.930206,121.604416 101.080719,148.429230 
	C101.094772,150.933380 101.810974,153.874985 103.249474,155.849899 
	C108.270508,162.743256 126.650612,162.772781 131.908691,156.120499 
	C132.711288,155.105103 133.609863,153.784134 133.628677,152.591324 
	C133.771744,143.518784 133.707001,134.442963 133.707001,125.373299 
	C130.298767,125.373299 127.354225,125.373299 124.519295,125.373299 
	C124.253120,125.872421 123.975143,126.151833 123.972595,126.433731 
	C123.903450,134.093857 123.868011,141.754272 123.814873,149.414551 
	C123.777252,154.838074 122.063370,156.802490 117.395485,156.808533 
	C112.833565,156.814438 110.869499,154.667267 110.862274,149.486008 
	C110.839500,133.157379 110.854301,116.828712 110.854568,99.500046 
M445.221222,125.169144 
	C442.599731,125.169144 439.978271,125.169144 436.815979,125.169144 
	C436.815979,133.584229 436.842926,141.535187 436.806641,149.485855 
	C436.781891,154.909073 435.048950,156.807770 430.285522,156.808517 
	C425.681213,156.809265 423.862244,154.759262 423.859222,149.433029 
	C423.846344,126.770256 423.850616,104.107468 423.855682,81.444687 
	C423.857025,75.446121 423.897278,69.447548 423.893219,63.448994 
	C423.890900,60.044651 425.606140,58.264126 428.924103,57.763939 
	C434.170288,56.973064 436.842682,59.048336 436.940063,64.482231 
	C437.073578,71.931236 436.973450,79.384422 436.973450,86.947128 
	C440.448975,86.947128 443.374939,86.947128 446.184357,86.947128 
	C446.458282,86.428795 446.738495,86.144234 446.741241,85.857002 
	C446.797516,80.026283 446.918976,74.193802 446.831818,68.364601 
	C446.672089,57.684231 443.206879,54.124500 432.491547,53.502541 
	C430.670746,53.396858 428.822784,53.468700 427.005280,53.643936 
	C416.966217,54.611832 414.000153,57.885147 413.993073,68.051697 
	C413.974548,94.713776 413.982147,121.375870 413.998749,148.037964 
	C413.999664,149.530411 413.945862,151.081924 414.311615,152.504639 
	C415.703827,157.920227 421.314728,160.844589 430.269806,160.989334 
	C439.082642,161.131775 445.789062,158.371277 446.224731,152.902512 
	C446.953339,143.757217 446.248260,134.497711 445.221222,125.169144 
M563.380249,126.048935 
	C568.022705,102.140251 572.665161,78.231567 577.363525,54.034916 
	C567.158447,54.034916 557.723694,54.034916 548.055298,54.034916 
	C548.055298,55.843349 548.055298,57.431229 548.055298,59.701630 
	C553.779663,59.701630 559.323242,59.701630 565.227783,59.701630 
	C558.749207,93.508255 552.410217,126.586418 546.019897,159.932617 
	C556.951904,159.932617 567.376038,159.932617 577.918762,159.932617 
	C577.918762,158.092087 577.918762,156.508820 577.918762,154.382904 
	C571.241211,154.382904 564.813782,154.382904 558.051758,154.382904 
	C559.838501,144.825836 561.515442,135.855942 563.380249,126.048935 
M315.138306,72.506180 
	C315.138306,101.583748 315.138306,130.661316 315.138306,159.811874 
	C318.744873,159.811874 321.774414,159.811874 325.232452,159.811874 
	C325.232452,126.224907 325.232452,93.014885 325.232452,59.295769 
	C329.410217,59.295769 333.148254,59.295769 337.181610,59.295769 
	C337.073517,57.349312 336.994965,55.934258 336.912689,54.452641 
	C325.685455,54.452641 314.794891,54.452641 303.431763,54.452641 
	C303.589142,56.334347 303.716431,57.855961 303.873108,59.729279 
	C307.851593,59.729279 311.283997,59.729279 315.138306,59.729279 
	C315.138306,63.915844 315.138306,67.712860 315.138306,72.506180 
z"/>
<path fill="#0A4268" opacity="1.000000" stroke="none" 
	d="
M274.190125,126.000084 
	C274.190125,137.482849 274.190125,148.465607 274.190125,159.817917 
	C271.052795,159.817917 268.158203,159.817917 264.850891,159.817917 
	C264.850891,124.827065 264.850891,89.772575 264.850891,54.349419 
	C267.314026,54.349419 269.881683,54.349419 273.181915,54.349419 
	C277.464752,71.980713 281.833313,89.965057 286.201874,107.949402 
	C286.436096,107.930084 286.670288,107.910767 286.904510,107.891449 
	C286.904510,90.097160 286.904510,72.302864 286.904510,54.248283 
	C290.269836,54.248283 293.204468,54.248283 296.502045,54.248283 
	C296.502045,89.273064 296.502045,124.340179 296.502045,159.799622 
	C293.522156,159.799622 290.492645,159.799622 286.731506,159.799622 
	C289.600677,136.670242 279.555420,115.937119 275.446503,94.064545 
	C275.028137,94.091827 274.609802,94.119110 274.191437,94.146400 
	C274.191437,99.264771 274.191620,104.383148 274.191376,109.501526 
	C274.191132,114.834373 274.190552,120.167229 274.190125,126.000084 
z"/>
<path fill="#0C4367" opacity="1.000000" stroke="none" 
	d="
M485.415466,103.284317 
	C490.499481,107.467216 491.755310,112.909515 491.631714,119.273499 
	C491.370331,132.731979 491.552063,146.199051 491.552063,159.928726 
	C488.061493,159.928726 484.983612,159.928726 481.450012,159.928726 
	C481.450012,146.743118 481.450043,133.786896 481.450043,120.830673 
	C481.450043,119.497383 481.453735,118.164085 481.449310,116.830811 
	C481.419464,107.845383 478.694977,105.641640 469.003387,107.092926 
	C469.003387,124.493210 469.003387,141.951340 469.003387,159.802902 
	C465.624451,159.802902 462.575623,159.802902 459.243652,159.802902 
	C459.243652,124.944214 459.243652,90.024406 459.243652,54.040771 
	C467.359772,54.557922 475.461243,54.735687 483.465973,55.709160 
	C488.389984,56.307983 491.417694,59.511822 491.403870,64.970276 
	C491.378571,74.966148 491.905243,84.989754 491.261261,94.940926 
	C491.079407,97.751045 487.629059,100.349640 485.415466,103.284317 
M481.448029,95.558609 
	C481.557526,85.103432 481.873138,74.642326 481.572418,64.198959 
	C481.522614,62.470470 479.067261,59.983910 477.207031,59.339951 
	C474.767670,58.495541 471.815399,59.132824 469.157806,59.132824 
	C469.157806,73.666298 469.157806,87.718201 469.157806,102.097000 
	C474.085144,101.499916 479.398865,102.739571 481.448029,95.558609 
z"/>
<path fill="#0A4268" opacity="1.000000" stroke="none" 
	d="
M526.808411,129.999695 
	C526.808411,104.563454 526.808411,79.627151 526.808411,54.415947 
	C530.185669,54.415947 533.081299,54.415947 536.542603,54.415947 
	C536.542603,56.255791 536.542664,57.881577 536.542664,59.507366 
	C536.542419,88.480370 536.549316,117.453369 536.537964,146.426376 
	C536.533936,156.696182 533.275696,160.307648 523.086853,160.799316 
	C519.643799,160.965469 516.073425,160.689545 512.715332,159.932373 
	C506.872559,158.614990 504.173187,155.131287 504.164703,149.316849 
	C504.119568,118.345848 504.150482,87.374741 504.166473,56.403675 
	C504.166748,55.918293 504.311890,55.432983 504.453613,54.545738 
	C507.447479,54.545738 510.471069,54.545738 514.020874,54.545738 
	C514.020874,56.391556 514.020874,58.176708 514.020874,59.961861 
	C514.020935,89.767418 514.018372,119.572983 514.023254,149.378540 
	C514.024170,154.965714 515.557251,156.784286 520.221985,156.800964 
	C524.860229,156.817551 526.756653,154.756989 526.795715,149.481735 
	C526.842529,143.154678 526.807800,136.827026 526.808411,129.999695 
z"/>
<path fill="#0A4268" opacity="1.000000" stroke="none" 
	d="
M55.137024,108.999954 
	C55.137024,90.562225 55.137024,72.624512 55.137024,54.414669 
	C58.586376,54.414669 61.496864,54.414669 65.017799,54.414669 
	C65.017799,56.283016 65.017792,58.055752 65.017792,59.828487 
	C65.017807,89.636841 65.014168,119.445198 65.021111,149.253555 
	C65.022408,154.844894 66.567490,156.709610 71.192932,156.801437 
	C76.026047,156.897400 77.804054,154.866547 77.805534,149.153748 
	C77.813217,119.511925 77.809235,89.870102 77.809311,60.228275 
	C77.809311,58.419823 77.809311,56.611366 77.809311,54.472664 
	C81.076111,54.472664 83.983253,54.472664 87.542168,54.472664 
	C87.542168,56.288544 87.542145,58.073009 87.542168,59.857471 
	C87.542519,88.999718 87.548157,118.141968 87.540138,147.284210 
	C87.537621,156.441513 84.401207,159.987137 75.331116,160.791351 
	C72.532608,161.039459 69.646767,161.045120 66.870255,160.660843 
	C58.245991,159.467209 55.153023,155.751785 55.141914,146.968491 
	C55.126118,134.478989 55.137344,121.989464 55.137024,108.999954 
z"/>
<path fill="#084168" opacity="1.000000" stroke="none" 
	d="
M250.186111,122.000076 
	C250.186111,134.807648 250.186111,147.115234 250.186111,159.803345 
	C247.073502,159.803345 244.181641,159.803345 240.616699,159.803345 
	C240.616699,142.392761 240.616699,124.881371 240.616699,107.118370 
	C236.039536,107.118370 232.122421,107.118370 227.689789,107.118370 
	C227.689789,124.644882 227.689789,142.037643 227.689789,159.805817 
	C224.306091,159.805817 221.413208,159.805817 217.813004,159.805817 
	C217.813004,158.349884 217.812973,156.756439 217.813004,155.162979 
	C217.813538,126.024231 217.803909,96.885468 217.820160,67.746727 
	C217.825729,57.778599 220.651917,54.658466 230.502167,53.678162 
	C232.153549,53.513817 233.829147,53.408287 235.483475,53.487148 
	C249.067719,54.134724 250.455902,59.160507 250.280838,68.552673 
	C249.951981,86.196259 250.186096,103.850349 250.186111,122.000076 
M240.535126,98.088707 
	C240.533737,86.595238 240.495605,75.101601 240.551025,63.608406 
	C240.570251,59.618504 238.453903,57.810474 234.759506,57.616051 
	C231.108673,57.423920 227.689636,58.377739 227.613907,62.688068 
	C227.392212,75.309441 227.535034,87.937210 227.535034,101.006554 
	C231.411697,101.006554 234.875717,101.124245 238.319977,100.915611 
	C239.086273,100.869194 239.782974,99.673889 240.535126,98.088707 
z"/>
<path fill="#084169" opacity="1.000000" stroke="none" 
	d="
M354.536560,150.925262 
	C354.536682,154.206955 354.536682,156.999908 354.536682,159.985901 
	C351.177155,159.985901 348.375061,159.985901 344.813416,159.985901 
	C344.813416,158.417282 344.813385,156.831070 344.813416,155.244858 
	C344.813568,126.104347 344.804474,96.963829 344.819000,67.823326 
	C344.824066,57.669762 347.717560,54.540398 357.930267,53.618862 
	C359.748566,53.454792 361.594452,53.392799 363.415497,53.496464 
	C374.111298,54.105366 377.184387,57.361622 377.185333,67.984016 
	C377.187897,96.791496 377.186737,125.598969 377.187042,154.406448 
	C377.187042,156.188782 377.187042,157.971115 377.187042,159.917542 
	C373.749725,159.917542 370.844849,159.917542 367.472229,159.917542 
	C367.472229,142.241547 367.472229,124.825119 367.472229,107.136742 
	C363.089325,107.136742 359.171875,107.136742 354.536469,107.136742 
	C354.536469,121.622414 354.536469,136.029480 354.536560,150.925262 
M367.541229,95.283005 
	C367.539490,84.792526 367.471924,74.301437 367.568085,63.811852 
	C367.607208,59.544037 365.346405,57.706814 361.476807,57.573803 
	C357.499390,57.437084 354.567810,58.934227 354.521851,63.484921 
	C354.446167,70.977211 354.470367,78.470551 354.459717,85.963455 
	C354.452698,90.899101 354.458374,95.834755 354.458374,100.814232 
	C359.107025,100.814232 363.059174,100.814232 367.299011,100.814232 
	C367.386139,99.160294 367.463409,97.693535 367.541229,95.283005 
z"/>
<path fill="#074069" opacity="1.000000" stroke="none" 
	d="
M205.014618,137.001617 
	C205.008347,141.496857 205.110580,145.497894 204.970444,149.490402 
	C204.758850,155.519577 202.221817,158.692825 196.346207,160.066879 
	C193.778778,160.667267 191.079605,160.970139 188.442062,160.959549 
	C175.898911,160.909225 172.158630,157.056351 172.146439,144.446350 
	C172.140350,138.151535 172.145370,131.856735 172.145370,125.207504 
	C175.473465,125.207504 178.408539,125.207504 182.015594,125.207504 
	C182.015594,133.255432 181.952423,141.524002 182.039352,149.790985 
	C182.091339,154.734940 184.496719,157.400253 188.972229,156.624771 
	C191.115158,156.253433 194.611481,153.879303 194.599625,152.436020 
	C194.503494,140.732742 197.502808,128.596130 192.122879,117.468620 
	C188.672073,110.331184 184.239059,103.585503 179.609558,97.120178 
	C172.316956,86.935677 171.519638,75.578247 172.361023,63.761471 
	C172.442825,62.612400 172.712189,61.439003 173.110764,60.356525 
	C175.109665,54.927559 182.078293,52.563938 192.431000,53.738499 
	C200.539871,54.658482 204.315140,57.324398 204.685715,63.627987 
	C205.132385,71.225609 204.791458,78.869530 204.791458,86.752388 
	C201.719635,86.752388 198.788681,86.752388 195.090378,86.752388 
	C195.090378,79.200272 195.205170,71.603485 195.048843,64.012283 
	C194.949539,59.190094 192.803391,57.369896 188.153168,57.646667 
	C184.244812,57.879288 182.233002,59.732983 181.956863,63.897144 
	C181.160568,75.904755 182.829880,87.125412 190.891449,96.710426 
	C192.484619,98.604675 193.522018,100.956009 195.020447,102.942085 
	C202.532166,112.898369 206.409531,123.908585 205.014618,137.001617 
z"/>
<path fill="#074069" opacity="1.000000" stroke="none" 
	d="
M110.854568,100.000053 
	C110.854301,116.828712 110.839500,133.157379 110.862274,149.486008 
	C110.869499,154.667267 112.833565,156.814438 117.395485,156.808533 
	C122.063370,156.802490 123.777252,154.838074 123.814873,149.414551 
	C123.868011,141.754272 123.903450,134.093857 123.972595,126.433731 
	C123.975143,126.151833 124.253120,125.872421 124.519295,125.373299 
	C127.354225,125.373299 130.298767,125.373299 133.707001,125.373299 
	C133.707001,134.442963 133.771744,143.518784 133.628677,152.591324 
	C133.609863,153.784134 132.711288,155.105103 131.908691,156.120499 
	C126.650612,162.772781 108.270508,162.743256 103.249474,155.849899 
	C101.810974,153.874985 101.094772,150.933380 101.080719,148.429230 
	C100.930206,121.604416 100.942253,94.778336 101.010300,67.952858 
	C101.036148,57.764103 104.002121,54.624229 114.178497,53.664837 
	C116.482292,53.447647 118.844261,53.459015 121.147163,53.688786 
	C130.644806,54.636429 133.733459,57.998798 133.842056,67.455513 
	C133.914536,73.765343 133.855835,80.076683 133.855835,86.784012 
	C130.540329,86.784012 127.512390,86.784012 123.985748,86.784012 
	C123.985748,79.643631 124.014328,72.521851 123.976807,65.400429 
	C123.946159,59.584629 122.217636,57.581856 117.394279,57.604584 
	C112.631058,57.627029 110.910561,59.601574 110.876480,65.509987 
	C110.811119,76.839676 110.855637,88.169991 110.854568,100.000053 
z"/>
<path fill="#074069" opacity="1.000000" stroke="none" 
	d="
M445.683929,125.227707 
	C446.248260,134.497711 446.953339,143.757217 446.224731,152.902512 
	C445.789062,158.371277 439.082642,161.131775 430.269806,160.989334 
	C421.314728,160.844589 415.703827,157.920227 414.311615,152.504639 
	C413.945862,151.081924 413.999664,149.530411 413.998749,148.037964 
	C413.982147,121.375870 413.974548,94.713776 413.993073,68.051697 
	C414.000153,57.885147 416.966217,54.611832 427.005280,53.643936 
	C428.822784,53.468700 430.670746,53.396858 432.491547,53.502541 
	C443.206879,54.124500 446.672089,57.684231 446.831818,68.364601 
	C446.918976,74.193802 446.797516,80.026283 446.741241,85.857002 
	C446.738495,86.144234 446.458282,86.428795 446.184357,86.947128 
	C443.374939,86.947128 440.448975,86.947128 436.973450,86.947128 
	C436.973450,79.384422 437.073578,71.931236 436.940063,64.482231 
	C436.842682,59.048336 434.170288,56.973064 428.924103,57.763939 
	C425.606140,58.264126 423.890900,60.044651 423.893219,63.448994 
	C423.897278,69.447548 423.857025,75.446121 423.855682,81.444687 
	C423.850616,104.107468 423.846344,126.770256 423.859222,149.433029 
	C423.862244,154.759262 425.681213,156.809265 430.285522,156.808517 
	C435.048950,156.807770 436.781891,154.909073 436.806641,149.485855 
	C436.842926,141.535187 436.815979,133.584229 436.815979,125.169144 
	C439.978271,125.169144 442.599731,125.169144 445.683929,125.227707 
z"/>
<path fill="#094168" opacity="1.000000" stroke="none" 
	d="
M563.286377,126.467491 
	C561.515442,135.855942 559.838501,144.825836 558.051758,154.382904 
	C564.813782,154.382904 571.241211,154.382904 577.918762,154.382904 
	C577.918762,156.508820 577.918762,158.092087 577.918762,159.932617 
	C567.376038,159.932617 556.951904,159.932617 546.019897,159.932617 
	C552.410217,126.586418 558.749207,93.508255 565.227783,59.701630 
	C559.323242,59.701630 553.779663,59.701630 548.055298,59.701630 
	C548.055298,57.431229 548.055298,55.843349 548.055298,54.034916 
	C557.723694,54.034916 567.158447,54.034916 577.363525,54.034916 
	C572.665161,78.231567 568.022705,102.140251 563.286377,126.467491 
z"/>
<path fill="#0A4268" opacity="1.000000" stroke="none" 
	d="
M315.138306,72.008026 
	C315.138306,67.712860 315.138306,63.915844 315.138306,59.729279 
	C311.283997,59.729279 307.851593,59.729279 303.873108,59.729279 
	C303.716431,57.855961 303.589142,56.334347 303.431763,54.452641 
	C314.794891,54.452641 325.685455,54.452641 336.912689,54.452641 
	C336.994965,55.934258 337.073517,57.349312 337.181610,59.295769 
	C333.148254,59.295769 329.410217,59.295769 325.232452,59.295769 
	C325.232452,93.014885 325.232452,126.224907 325.232452,159.811874 
	C321.774414,159.811874 318.744873,159.811874 315.138306,159.811874 
	C315.138306,130.661316 315.138306,101.583748 315.138306,72.008026 
z"/>
<path fill="#F8C502" opacity="1.000000" stroke="none" 
	d="
M481.342163,95.968681 
	C479.398865,102.739571 474.085144,101.499916 469.157806,102.097000 
	C469.157806,87.718201 469.157806,73.666298 469.157806,59.132824 
	C471.815399,59.132824 474.767670,58.495541 477.207031,59.339951 
	C479.067261,59.983910 481.522614,62.470470 481.572418,64.198959 
	C481.873138,74.642326 481.557526,85.103432 481.342163,95.968681 
z"/>
<path fill="#EBBD08" opacity="1.000000" stroke="none" 
	d="
M240.523422,98.548134 
	C239.782974,99.673889 239.086273,100.869194 238.319977,100.915611 
	C234.875717,101.124245 231.411697,101.006554 227.535034,101.006554 
	C227.535034,87.937210 227.392212,75.309441 227.613907,62.688068 
	C227.689636,58.377739 231.108673,57.423920 234.759506,57.616051 
	C238.453903,57.810474 240.570251,59.618504 240.551025,63.608406 
	C240.495605,75.101601 240.533737,86.595238 240.523422,98.548134 
z"/>
<path fill="#EBBE08" opacity="1.000000" stroke="none" 
	d="
M367.540955,95.754890 
	C367.463409,97.693535 367.386139,99.160294 367.299011,100.814232 
	C363.059174,100.814232 359.107025,100.814232 354.458374,100.814232 
	C354.458374,95.834755 354.452698,90.899101 354.459717,85.963455 
	C354.470367,78.470551 354.446167,70.977211 354.521851,63.484921 
	C354.567810,58.934227 357.499390,57.437084 361.476807,57.573803 
	C365.346405,57.706814 367.607208,59.544037 367.568085,63.811852 
	C367.471924,74.301437 367.539490,84.792526 367.540955,95.754890 
z"/>
</svg>